<svg width="1442" height="490" viewBox="0 0 1442 490" fill="none" xmlns="http://www.w3.org/2000/svg">
<path d="M1441.18 488.139L1.17996 489.328L0.777051 1.32824L335.939 1.05152C348.327 1.04129 354.522 1.03618 360.597 2.07892C366.672 3.12167 372.51 5.19204 384.187 9.3328L427.393 24.6549C439.07 28.7957 444.908 30.866 450.983 31.9088C457.058 32.9515 463.253 32.9464 475.642 32.9362L540.803 32.8824L720.803 32.7338L900.803 32.5852L965.965 32.5314C978.354 32.5211 984.548 32.516 990.621 31.4632C996.695 30.4105 1002.53 28.3305 1014.2 24.1705L1057.38 8.77696C1069.05 4.61696 1074.88 2.53695 1080.96 1.48417C1087.03 0.431397 1093.23 0.426283 1105.62 0.416054L1440.78 0.139335L1441.18 488.139Z" fill="#3F3F3F"/>
</svg>
